<svg width="121" height="120" viewBox="0 0 121 120" fill="none" xmlns="http://www.w3.org/2000/svg">
<path d="M47.375 5.62499C48.4875 5.62499 49.5751 5.95489 50.5001 6.57297C51.4251 7.19105 52.1461 8.06956 52.5718 9.09739C52.9976 10.1252 53.109 11.2562 52.8919 12.3474C52.6749 13.4385 52.1391 14.4408 51.3525 15.2275C50.5658 16.0141 49.5635 16.5499 48.4724 16.7669C47.3812 16.9839 46.2502 16.8726 45.2224 16.4468C44.1946 16.0211 43.3161 15.3001 42.698 14.3751C42.0799 13.45 41.75 12.3625 41.75 11.25C41.75 9.75814 42.3426 8.3274 43.3975 7.27251C44.4524 6.21762 45.8832 5.62499 47.375 5.62499ZM8 45C8 46.1125 8.3299 47.2 8.94798 48.1251C9.56607 49.0501 10.4446 49.7711 11.4724 50.1968C12.5002 50.6226 13.6312 50.7339 14.7224 50.5169C15.8135 50.2999 16.8158 49.7641 17.6025 48.9775C18.3891 48.1908 18.9249 47.1885 19.1419 46.0974C19.359 45.0062 19.2476 43.8752 18.8218 42.8474C18.3961 41.8196 17.6751 40.941 16.7501 40.323C15.8251 39.7049 14.7375 39.375 13.625 39.375C12.1332 39.375 10.7024 39.9676 9.64752 41.0225C8.59263 42.0774 8 43.5081 8 45ZM20.4219 23.6719C20.4219 24.7844 20.7518 25.8719 21.3699 26.7969C21.9879 27.722 22.8664 28.4429 23.8943 28.8687C24.9221 29.2944 26.0531 29.4058 27.1443 29.1888C28.2354 28.9717 29.2377 28.436 30.0244 27.6493C30.811 26.8627 31.3468 25.8604 31.5638 24.7692C31.7808 23.6781 31.6694 22.5471 31.2437 21.5193C30.818 20.4914 30.097 19.6129 29.172 18.9948C28.2469 18.3768 27.1594 18.0469 26.0469 18.0469C24.555 18.0469 23.1243 18.6395 22.0694 19.6944C21.0145 20.7493 20.4219 22.18 20.4219 23.6719ZM103.4 25.3765C96.0913 15.9237 85.9371 9.07146 74.4362 5.83147C73.7231 5.62839 72.977 5.56827 72.2406 5.65457C71.5043 5.74087 70.7922 5.97189 70.1455 6.33435C69.4987 6.6968 68.93 7.18353 68.472 7.76655C68.014 8.34958 67.6758 9.01739 67.4768 9.73158C67.2778 10.4458 67.222 11.1923 67.3125 11.9281C67.403 12.664 67.6381 13.3747 68.0042 14.0193C68.3704 14.664 68.8604 15.2299 69.446 15.6846C70.0317 16.1392 70.7014 16.4736 71.4167 16.6685C80.5796 19.2519 88.6689 24.7131 94.4905 32.2458C100.442 39.9255 103.657 49.3737 103.625 59.0897C103.625 83.3709 83.8505 103.125 59.5442 103.125C49.8682 103.157 40.4552 99.9772 32.7812 94.0835C29.5765 91.6281 26.7227 88.7461 24.2989 85.5176L21.125 84.8121V98.8643C31.5626 108.931 45.5342 114.5 60.0351 114.373C74.5359 114.246 88.4077 108.433 98.6673 98.1846C108.168 88.6957 113.888 76.0721 114.759 62.6729C115.63 49.2737 111.592 36.0159 103.4 25.3769V25.3765ZM17.375 106.875V80.1373L44.2798 86.1162C45.7362 86.4398 47.2614 86.1716 48.5201 85.3706C49.7787 84.5696 50.6676 83.3015 50.9912 81.8451C51.3148 80.3888 51.0466 78.8635 50.2456 77.6049C49.4447 76.3463 48.1765 75.4574 46.7202 75.1338L12.9702 67.6338C12.1479 67.4511 11.2951 67.4554 10.4747 67.6464C9.65428 67.8373 8.88726 68.2101 8.23021 68.7372C7.57317 69.2643 7.04289 69.9322 6.67852 70.6916C6.31415 71.4511 6.12498 72.2827 6.125 73.125V106.875C6.125 108.367 6.71763 109.798 7.77252 110.852C8.82742 111.907 10.2582 112.5 11.75 112.5C13.2418 112.5 14.6726 111.907 15.7275 110.852C16.7824 109.798 17.375 108.367 17.375 106.875Z" fill="#FFCE00"/>
</svg>
