<svg xmlns="http://www.w3.org/2000/svg" viewBox="0 0 302.921 230.785">
  <defs>
    <style>
      .cls-1, .cls-11, .cls-12, .cls-8 {
        fill: #fff;
      }

      .cls-10, .cls-13, .cls-14, .cls-15, .cls-16, .cls-18, .cls-2, .cls-9 {
        fill: none;
      }

      .cls-15, .cls-2 {
        stroke: #2ee2b1;
      }

      .cls-14, .cls-15, .cls-16, .cls-2 {
        stroke-linecap: round;
        stroke-miterlimit: 10;
      }

      .cls-2 {
        stroke-linejoin: round;
        stroke-width: 15px;
      }

      .cls-3 {
        fill: #feeb72;
      }

      .cls-4 {
        fill: #f98585;
      }

      .cls-5 {
        fill: #2ee2b1;
      }

      .cls-6 {
        fill: #e8eeff;
      }

      .cls-7 {
        fill: #d1dcfc;
      }

      .cls-8, .cls-9 {
        stroke: #e8eeff;
      }

      .cls-8 {
        stroke-width: 2.5px;
      }

      .cls-10, .cls-16, .cls-9 {
        stroke-width: 0.75px;
      }

      .cls-10 {
        stroke: #d1dcfc;
      }

      .cls-11, .cls-14 {
        stroke: #f98585;
      }

      .cls-11, .cls-12, .cls-14 {
        stroke-width: 2px;
      }

      .cls-12 {
        stroke: #229ff2;
      }

      .cls-13 {
        stroke: #feeb72;
        stroke-width: 1.5px;
      }

      .cls-15 {
        stroke-width: 1.75px;
      }

      .cls-16 {
        stroke: #e8edfc;
      }

      .cls-17 {
        stroke: none;
      }
    </style>
  </defs>
  <g id="success-message" transform="translate(-34.249 -51.215)">
    <circle id="Ellipse_5" data-name="Ellipse 5" class="cls-1" cx="84" cy="84" r="84" transform="translate(104 114)"/>
    <path id="Path_4" data-name="Path 4" class="cls-2" d="M99.393,30,53.932,75.461,30,51.495" transform="translate(124.5 142.5)"/>
    <g id="Group_3" data-name="Group 3" transform="matrix(0.951, -0.309, 0.309, 0.951, 87.144, 147.04)">
      <path id="Path_5" data-name="Path 5" class="cls-3" d="M8.984,3.688H7.706a.819.819,0,0,1-.822-.822V1.587A1.654,1.654,0,0,0,5.377-.1a1.61,1.61,0,0,0-1.69,1.6v1.37a.819.819,0,0,1-.822.822H1.587A1.654,1.654,0,0,0-.1,5.194a1.61,1.61,0,0,0,1.6,1.69h1.37a.819.819,0,0,1,.822.822V8.984a1.654,1.654,0,0,0,1.507,1.69,1.61,1.61,0,0,0,1.69-1.6V7.706a.819.819,0,0,1,.822-.822h1.37a1.61,1.61,0,0,0,1.6-1.69A1.689,1.689,0,0,0,8.984,3.688Z"/>
    </g>
    <g id="Group_15" data-name="Group 15" transform="matrix(0.966, 0.259, -0.259, 0.966, 35.684, 126.055)">
      <path id="Path_5-2" data-name="Path 5" class="cls-4" d="M4.331,1.746H3.707a.4.4,0,0,1-.4-.4V.721A.807.807,0,0,0,2.57-.1a.785.785,0,0,0-.824.78v.668a.4.4,0,0,1-.4.4H.721A.807.807,0,0,0-.1,2.481a.785.785,0,0,0,.78.824h.668a.4.4,0,0,1,.4.4v.624a.807.807,0,0,0,.735.824.785.785,0,0,0,.824-.78V3.707a.4.4,0,0,1,.4-.4h.668a.785.785,0,0,0,.78-.824A.824.824,0,0,0,4.331,1.746Z"/>
    </g>
    <g id="Group_5" data-name="Group 5" transform="translate(104.128 100.549) rotate(30)">
      <path id="Path_5-3" data-name="Path 5" class="cls-5" d="M6.37,2.6H5.459a.583.583,0,0,1-.585-.585V1.1A1.178,1.178,0,0,0,3.8-.1,1.147,1.147,0,0,0,2.6,1.035v.976a.583.583,0,0,1-.585.585H1.1A1.178,1.178,0,0,0-.1,3.67a1.147,1.147,0,0,0,1.138,1.2h.976a.583.583,0,0,1,.585.585V6.37a1.178,1.178,0,0,0,1.073,1.2,1.147,1.147,0,0,0,1.2-1.138V5.459a.583.583,0,0,1,.585-.585h.976a1.147,1.147,0,0,0,1.138-1.2A1.2,1.2,0,0,0,6.37,2.6Z" transform="translate(0.844 0.844)"/>
    </g>
    <g id="Group_6" data-name="Group 6" transform="matrix(0.921, 0.391, -0.391, 0.921, 259.079, 55.585)">
      <path id="Path_5-4" data-name="Path 5" class="cls-3" d="M10.5,4.322H9.012a.955.955,0,0,1-.959-.959V1.87A1.931,1.931,0,0,0,6.294-.1,1.879,1.879,0,0,0,4.322,1.763v1.6a.955.955,0,0,1-.959.959H1.87A1.931,1.931,0,0,0-.1,6.081,1.879,1.879,0,0,0,1.763,8.053h1.6a.955.955,0,0,1,.959.959V10.5a1.931,1.931,0,0,0,1.759,1.972,1.879,1.879,0,0,0,1.972-1.865v-1.6a.955.955,0,0,1,.959-.959h1.6a1.879,1.879,0,0,0,1.865-1.972A1.972,1.972,0,0,0,10.5,4.322Z" transform="translate(0.844 0.844)"/>
    </g>
    <g id="Group_4" data-name="Group 4" transform="translate(286.589 193.807) rotate(16)">
      <path id="Path_5-5" data-name="Path 5" class="cls-6" d="M5.521,2.242H4.729a.507.507,0,0,1-.509-.509V.942A1.024,1.024,0,0,0,3.288-.1,1,1,0,0,0,2.242.886v.848a.507.507,0,0,1-.509.509H.942A1.024,1.024,0,0,0-.1,3.175,1,1,0,0,0,.886,4.221h.848a.507.507,0,0,1,.509.509v.791a1.024,1.024,0,0,0,.933,1.046,1,1,0,0,0,1.046-.989V4.729a.507.507,0,0,1,.509-.509h.848a1,1,0,0,0,.989-1.046A1.045,1.045,0,0,0,5.521,2.242Z"/>
    </g>
    <g id="Group_11" data-name="Group 11" transform="matrix(0.875, -0.485, 0.485, 0.875, 322.077, 132.736)">
      <path id="Path_5-6" data-name="Path 5" class="cls-6" d="M4.7,1.9H4.02a.432.432,0,0,1-.434-.434V.789A.873.873,0,0,0,2.79-.1.85.85,0,0,0,1.9.741v.723a.432.432,0,0,1-.434.434H.789a.873.873,0,0,0-.892.8.85.85,0,0,0,.844.892h.723A.432.432,0,0,1,1.9,4.02V4.7a.873.873,0,0,0,.8.892.85.85,0,0,0,.892-.844V4.02a.432.432,0,0,1,.434-.434h.723a.85.85,0,0,0,.844-.892A.892.892,0,0,0,4.7,1.9Z" transform="translate(0 0)"/>
    </g>
    <g id="Group_12" data-name="Group 12" transform="matrix(0.875, -0.485, 0.485, 0.875, 254.912, 168.262)">
      <path id="Path_5-7" data-name="Path 5" class="cls-7" d="M2.419.948H2.064A.227.227,0,0,1,1.836.72V.365A.459.459,0,0,0,1.417-.1.447.447,0,0,0,.948.34V.72A.227.227,0,0,1,.72.948H.365A.459.459,0,0,0-.1,1.367a.447.447,0,0,0,.444.469H.72a.227.227,0,0,1,.228.228v.355a.459.459,0,0,0,.418.469.447.447,0,0,0,.469-.444v-.38a.227.227,0,0,1,.228-.228h.38a.447.447,0,0,0,.444-.469A.469.469,0,0,0,2.419.948Z" transform="translate(0 0)"/>
    </g>
    <g id="Group_7" data-name="Group 7" transform="translate(126.265 121.34) rotate(13)">
      <path id="Path_5-8" data-name="Path 5" class="cls-6" d="M3.536,1.415H3.024a.328.328,0,0,1-.329-.329V.573a.663.663,0,0,0-.6-.677.645.645,0,0,0-.677.64v.549a.328.328,0,0,1-.329.329H.573a.663.663,0,0,0-.677.6.645.645,0,0,0,.64.677h.549a.328.328,0,0,1,.329.329v.512a.663.663,0,0,0,.6.677.645.645,0,0,0,.677-.64V3.024a.328.328,0,0,1,.329-.329h.549a.645.645,0,0,0,.64-.677A.677.677,0,0,0,3.536,1.415Z" transform="translate(0 0)"/>
    </g>
    <g id="Group_14" data-name="Group 14" transform="translate(200.891 82.216) rotate(-51)">
      <path id="Path_5-9" data-name="Path 5" class="cls-6" d="M4.763,1.927H4.079a.438.438,0,0,1-.44-.44V.8a.886.886,0,0,0-.807-.9.862.862,0,0,0-.9.856v.734a.438.438,0,0,1-.44.44H.8a.886.886,0,0,0-.9.807.862.862,0,0,0,.856.9h.734a.438.438,0,0,1,.44.44v.685a.886.886,0,0,0,.807.9.862.862,0,0,0,.9-.856V4.079a.438.438,0,0,1,.44-.44h.734a.862.862,0,0,0,.856-.9A.9.9,0,0,0,4.763,1.927Z" transform="translate(0 0)"/>
    </g>
    <g id="Group_13" data-name="Group 13" transform="translate(164.265 51.34) rotate(13)">
      <path id="Path_5-10" data-name="Path 5" class="cls-6" d="M3.536,1.415H3.024a.328.328,0,0,1-.329-.329V.573a.663.663,0,0,0-.6-.677.645.645,0,0,0-.677.64v.549a.328.328,0,0,1-.329.329H.573a.663.663,0,0,0-.677.6.645.645,0,0,0,.64.677h.549a.328.328,0,0,1,.329.329v.512a.663.663,0,0,0,.6.677.645.645,0,0,0,.677-.64V3.024a.328.328,0,0,1,.329-.329h.549a.645.645,0,0,0,.64-.677A.677.677,0,0,0,3.536,1.415Z" transform="translate(0 0)"/>
    </g>
    <g id="Group_10" data-name="Group 10" transform="translate(126.265 156.34) rotate(13)">
      <path id="Path_5-11" data-name="Path 5" class="cls-7" d="M3.536,1.415H3.024a.328.328,0,0,1-.329-.329V.573a.663.663,0,0,0-.6-.677.645.645,0,0,0-.677.64v.549a.328.328,0,0,1-.329.329H.573a.663.663,0,0,0-.677.6.645.645,0,0,0,.64.677h.549a.328.328,0,0,1,.329.329v.512a.663.663,0,0,0,.6.677.645.645,0,0,0,.677-.64V3.024a.328.328,0,0,1,.329-.329h.549a.645.645,0,0,0,.64-.677A.677.677,0,0,0,3.536,1.415Z" transform="translate(0 0)"/>
    </g>
    <g id="Group_8" data-name="Group 8" transform="translate(64.265 116.34) rotate(13)">
      <path id="Path_5-12" data-name="Path 5" class="cls-6" d="M3.536,1.415H3.024a.328.328,0,0,1-.329-.329V.573a.663.663,0,0,0-.6-.677.645.645,0,0,0-.677.64v.549a.328.328,0,0,1-.329.329H.573a.663.663,0,0,0-.677.6.645.645,0,0,0,.64.677h.549a.328.328,0,0,1,.329.329v.512a.663.663,0,0,0,.6.677.645.645,0,0,0,.677-.64V3.024a.328.328,0,0,1,.329-.329h.549a.645.645,0,0,0,.64-.677A.677.677,0,0,0,3.536,1.415Z" transform="translate(0 0)"/>
    </g>
    <g id="Group_9" data-name="Group 9" transform="translate(98.844 81.667) rotate(13)">
      <path id="Path_5-13" data-name="Path 5" class="cls-6" d="M4.009,1.612H3.431a.37.37,0,0,1-.372-.372V.661A.749.749,0,0,0,2.377-.1.729.729,0,0,0,1.612.62v.62a.37.37,0,0,1-.372.372H.661A.749.749,0,0,0-.1,2.294a.729.729,0,0,0,.723.765h.62a.37.37,0,0,1,.372.372v.579a.749.749,0,0,0,.682.765.729.729,0,0,0,.765-.723v-.62a.37.37,0,0,1,.372-.372h.62a.729.729,0,0,0,.723-.765A.765.765,0,0,0,4.009,1.612Z"/>
    </g>
    <g id="Ellipse_1" data-name="Ellipse 1" class="cls-8" transform="translate(77 195)">
      <circle class="cls-17" cx="5" cy="5" r="5"/>
      <circle class="cls-18" cx="5" cy="5" r="3.75"/>
    </g>
    <g id="Ellipse_6" data-name="Ellipse 6" class="cls-9" transform="translate(247 122)">
      <circle class="cls-17" cx="1.5" cy="1.5" r="1.5"/>
      <circle class="cls-18" cx="1.5" cy="1.5" r="1.125"/>
    </g>
    <g id="Ellipse_7" data-name="Ellipse 7" class="cls-10" transform="translate(239 141)">
      <circle class="cls-17" cx="1.5" cy="1.5" r="1.5"/>
      <circle class="cls-18" cx="1.5" cy="1.5" r="1.125"/>
    </g>
    <g id="Ellipse_2" data-name="Ellipse 2" class="cls-11" transform="translate(143 96)">
      <circle class="cls-17" cx="5.5" cy="5.5" r="5.5"/>
      <circle class="cls-18" cx="5.5" cy="5.5" r="4.5"/>
    </g>
    <g id="Ellipse_3" data-name="Ellipse 3" class="cls-12" transform="translate(323 159)">
      <circle class="cls-17" cx="5.5" cy="5.5" r="5.5"/>
      <circle class="cls-18" cx="5.5" cy="5.5" r="4.5"/>
    </g>
    <g id="Ellipse_4" data-name="Ellipse 4" class="cls-13" transform="translate(282 227)">
      <circle class="cls-17" cx="3.5" cy="3.5" r="3.5"/>
      <circle class="cls-18" cx="3.5" cy="3.5" r="2.75"/>
    </g>
    <g id="Ellipse_8" data-name="Ellipse 8" class="cls-13" transform="translate(232 98)">
      <circle class="cls-17" cx="3.5" cy="3.5" r="3.5"/>
      <circle class="cls-18" cx="3.5" cy="3.5" r="2.75"/>
    </g>
    <path id="Path_6" data-name="Path 6" class="cls-14" d="M2.6,10.737,7.079,3l4.479,7.737Z" transform="translate(324.098 195.187) rotate(7)"/>
    <path id="Path_8" data-name="Path 8" class="cls-15" d="M2.6,9.188,6.183,3,9.765,9.188Z" transform="matrix(0.94, 0.342, -0.342, 0.94, 282.455, 139.447)"/>
    <path id="Path_7" data-name="Path 7" class="cls-16" d="M2.6,5.873,4.264,3,5.927,5.873Z" transform="translate(264.969 140.634) rotate(-25)"/>
  </g>
</svg>
